<?xml version="1.0" standalone="no"?>
<svg viewBox="0 0 200 200" xmlns="http://www.w3.org/2000/svg">
  <path fill="#D2BBEE" d="M35.4,-45.7C49.3,-38.6,66.3,-32.8,73.2,-21.4C80.2,-10,77.1,7,69.9,20.8C62.8,34.6,51.6,45.1,39.3,53.8C26.9,62.5,13.5,69.4,0.5,68.7C-12.4,67.9,-24.8,59.6,-33.9,49.8C-42.9,40,-48.7,28.9,-56.5,15.8C-64.4,2.7,-74.3,-12.3,-74.8,-28.5C-75.3,-44.6,-66.3,-61.8,-52.3,-68.9C-38.3,-75.9,-19.1,-72.8,-4.2,-67.1C10.7,-61.3,21.5,-52.8,35.4,-45.7Z" transform="translate(100 100)" />
</svg>
