<svg width="887" height="492" viewBox="0 0 887 492" fill="none" xmlns="http://www.w3.org/2000/svg">
<g clip-path="url(#clip0_298_2)">
<path d="M232.396 154.009C260.431 154.009 283.159 131.282 283.159 103.246C283.159 75.2109 260.431 52.4837 232.396 52.4837C204.361 52.4837 181.633 75.2109 181.633 103.246C181.633 131.282 204.361 154.009 232.396 154.009Z" fill="#FFE665"/>
<path d="M391.582 259.678H142.556C142.244 259.682 141.932 259.658 141.625 259.605L259.403 55.596C260.122 54.3255 261.165 53.2685 262.426 52.5331C263.687 51.7977 265.121 51.4102 266.58 51.4102C268.04 51.4102 269.474 51.7977 270.735 52.5331C271.996 53.2685 273.039 54.3255 273.758 55.596L352.802 192.502L356.589 199.053L391.582 259.678Z" fill="#7F6E95"/>
<path opacity="0.2" d="M391.582 259.678H306.558L348.296 199.052L351.3 194.685L352.802 192.502L356.589 199.052L391.582 259.678Z" fill="black"/>
<path d="M530.238 259.678H314.851L356.588 199.052L359.592 194.685L413.98 115.678C417.546 110.5 426.124 110.178 430.316 114.702C430.598 115.01 430.859 115.336 431.099 115.678L530.238 259.678Z" fill="#7F6E95"/>
<path d="M593.463 226.116C601.911 226.116 608.76 219.268 608.76 210.82C608.76 202.372 601.911 195.523 593.463 195.523C585.015 195.523 578.167 202.372 578.167 210.82C578.167 219.268 585.015 226.116 593.463 226.116Z" fill="#D2BBEE"/>
<path d="M594.938 256.894H591.805L593.233 208.516L594.938 256.894Z" fill="#3F3D56"/>
<path d="M593.509 217.685L596.873 213.031L593.463 218.837L593.095 218.192L593.509 217.685Z" fill="#3F3D56"/>
<path d="M593.141 222.384L589.777 217.731L593.187 223.536L593.555 222.891L593.141 222.384Z" fill="#3F3D56"/>
<path d="M733.78 226.116C742.228 226.116 749.077 219.268 749.077 210.82C749.077 202.372 742.228 195.523 733.78 195.523C725.332 195.523 718.484 202.372 718.484 210.82C718.484 219.268 725.332 226.116 733.78 226.116Z" fill="#D2BBEE"/>
<path d="M735.254 256.894H732.121L733.55 208.516L735.254 256.894Z" fill="#3F3D56"/>
<path d="M733.826 217.685L737.19 213.031L733.78 218.837L733.411 218.192L733.826 217.685Z" fill="#3F3D56"/>
<path d="M733.458 222.384L730.094 217.731L733.504 223.536L733.872 222.891L733.458 222.384Z" fill="#3F3D56"/>
<path d="M637.774 211.438C650.251 211.438 660.366 201.323 660.366 188.846C660.366 176.369 650.251 166.255 637.774 166.255C625.297 166.255 615.183 176.369 615.183 188.846C615.183 201.323 625.297 211.438 637.774 211.438Z" fill="#D2BBEE"/>
<path d="M639.952 256.894H635.325L637.434 185.444L639.952 256.894Z" fill="#3F3D56"/>
<path d="M637.843 198.985L642.81 192.113L637.775 200.687L637.23 199.734L637.843 198.985Z" fill="#3F3D56"/>
<path d="M637.298 205.926L632.331 199.054L637.366 207.627L637.911 206.675L637.298 205.926Z" fill="#3F3D56"/>
<path d="M692.868 211.438C705.345 211.438 715.46 201.323 715.46 188.846C715.46 176.369 705.345 166.255 692.868 166.255C680.391 166.255 670.277 176.369 670.277 188.846C670.277 201.323 680.391 211.438 692.868 211.438Z" fill="#D2BBEE"/>
<path d="M695.046 256.894H690.419L692.528 185.444L695.046 256.894Z" fill="#3F3D56"/>
<path d="M692.936 198.985L697.904 192.113L692.868 200.687L692.324 199.734L692.936 198.985Z" fill="#3F3D56"/>
<path d="M692.392 205.926L687.424 199.054L692.46 207.627L693.004 206.675L692.392 205.926Z" fill="#3F3D56"/>
<path d="M549.969 211.438C562.446 211.438 572.561 201.323 572.561 188.846C572.561 176.369 562.446 166.255 549.969 166.255C537.492 166.255 527.377 176.369 527.377 188.846C527.377 201.323 537.492 211.438 549.969 211.438Z" fill="#D2BBEE"/>
<path d="M552.146 256.894H547.519L549.629 185.444L552.146 256.894Z" fill="#3F3D56"/>
<path d="M550.037 198.985L555.004 192.113L549.969 200.687L549.425 199.734L550.037 198.985Z" fill="#3F3D56"/>
<path d="M549.493 205.926L544.525 199.054L549.561 207.627L550.105 206.675L549.493 205.926Z" fill="#3F3D56"/>
<path d="M817.25 491.631H79.9839C70.695 491.631 61.497 489.802 52.9151 486.247C44.3333 482.692 36.5357 477.482 29.9674 470.914C23.3991 464.345 18.1889 456.548 14.6342 447.966C11.0795 439.384 9.24988 430.186 9.24988 420.897C9.24988 411.608 11.0795 402.41 14.6342 393.828C18.1889 385.247 23.3991 377.449 29.9674 370.881C36.5357 364.312 44.3333 359.102 52.9151 355.547C61.497 351.993 70.695 350.163 79.9839 350.163H815.617C822.833 350.163 829.753 347.297 834.854 342.195C839.956 337.093 842.823 330.173 842.823 322.958C842.823 315.742 839.956 308.823 834.854 303.721C829.753 298.619 822.833 295.752 815.617 295.752H55.499V252.224H815.617C834.377 252.224 852.369 259.676 865.634 272.941C878.899 286.206 886.351 304.198 886.351 322.958C886.351 341.718 878.899 359.709 865.634 372.974C852.369 386.239 834.377 393.692 815.617 393.692H79.9839C72.7686 393.692 65.8488 396.558 60.7468 401.66C55.6448 406.762 52.7785 413.682 52.7785 420.897C52.7785 428.112 55.6448 435.032 60.7468 440.134C65.8488 445.236 72.7686 448.103 79.9839 448.103H817.25V491.631Z" fill="#E6E6E6"/>
<path d="M116.439 272.9H82.7043V275.076H116.439V272.9Z" fill="white"/>
<path d="M212.202 272.9H178.467V275.076H212.202V272.9Z" fill="white"/>
<path d="M307.965 272.9H274.23V275.076H307.965V272.9Z" fill="white"/>
<path d="M403.728 272.9H369.993V275.076H403.728V272.9Z" fill="white"/>
<path d="M499.491 272.9H465.756V275.076H499.491V272.9Z" fill="white"/>
<path d="M595.254 272.9H561.519V275.076H595.254V272.9Z" fill="white"/>
<path d="M691.017 272.9H657.282V275.076H691.017V272.9Z" fill="white"/>
<path d="M786.78 272.9H753.045V275.076H786.78V272.9Z" fill="white"/>
<path d="M116.439 370.839H82.7043V373.016H116.439V370.839Z" fill="white"/>
<path d="M212.202 370.839H178.467V373.016H212.202V370.839Z" fill="white"/>
<path d="M307.965 370.839H274.23V373.016H307.965V370.839Z" fill="white"/>
<path d="M403.728 370.839H369.993V373.016H403.728V370.839Z" fill="white"/>
<path d="M499.491 370.839H465.756V373.016H499.491V370.839Z" fill="white"/>
<path d="M595.254 370.839H561.519V373.016H595.254V370.839Z" fill="white"/>
<path d="M691.017 370.839H657.282V373.016H691.017V370.839Z" fill="white"/>
<path d="M786.78 370.839H753.045V373.016H786.78V370.839Z" fill="white"/>
<path d="M116.439 468.779H82.7043V470.955H116.439V468.779Z" fill="white"/>
<path d="M212.202 468.779H178.467V470.955H212.202V468.779Z" fill="white"/>
<path d="M307.965 468.779H274.23V470.955H307.965V468.779Z" fill="white"/>
<path d="M403.728 468.779H369.993V470.955H403.728V468.779Z" fill="white"/>
<path d="M499.491 468.779H465.756V470.955H499.491V468.779Z" fill="white"/>
<path d="M595.254 468.779H561.519V470.955H595.254V468.779Z" fill="white"/>
<path d="M691.017 468.779H657.282V470.955H691.017V468.779Z" fill="white"/>
<path d="M786.78 468.779H753.045V470.955H786.78V468.779Z" fill="white"/>
<path d="M591.868 86.3742C595.412 86.3708 598.898 87.2717 601.997 88.9916H581.765C584.854 87.2722 588.332 86.3712 591.868 86.3742Z" fill="#E6E6E6"/>
<path d="M552.607 83.7567C558.527 83.7498 564.304 85.5787 569.141 88.9915H536.095C540.926 85.5827 546.694 83.754 552.607 83.7567Z" fill="#E6E6E6"/>
<path d="M330.212 50.623C330.93 37.9272 336.133 25.8991 344.895 16.6831C353.656 7.46715 365.406 1.66238 378.049 0.303757C390.693 -1.05487 403.407 2.12097 413.927 9.26505C424.446 16.4091 432.087 27.0571 435.486 39.3104C436.136 39.2871 436.785 39.261 437.441 39.261C449.033 39.2631 460.313 43.0186 469.594 49.9655C478.874 56.9124 485.655 66.6773 488.923 77.7993C496.605 74.4242 505.189 73.6919 513.331 75.7172C521.473 77.7425 528.714 82.411 533.919 88.9916H366.547C361.664 89.0054 356.829 88.0338 352.33 86.1349C347.832 84.236 343.763 81.4489 340.367 77.9405C336.971 74.4321 334.317 70.2744 332.566 65.7165C330.815 61.1586 330.001 56.2942 330.174 51.4144C330.184 51.151 330.197 50.8872 330.212 50.623Z" fill="#E6E6E6"/>
<path d="M604.081 125.55C600.537 125.547 597.05 126.447 593.952 128.167H614.184C611.094 126.448 607.617 125.547 604.081 125.55Z" fill="#E6E6E6"/>
<path d="M643.342 122.932C637.422 122.926 631.645 124.754 626.808 128.167H659.853C655.022 124.758 649.254 122.93 643.342 122.932Z" fill="#E6E6E6"/>
<path d="M865.737 89.7988C865.019 77.103 859.815 65.0749 851.054 55.8589C842.292 46.6429 830.542 40.8381 817.899 39.4795C805.256 38.1209 792.541 41.2967 782.022 48.4408C771.502 55.5849 763.862 66.2328 760.463 78.4862C759.813 78.4628 759.163 78.4367 758.507 78.4367C746.915 78.4389 735.635 82.1943 726.355 89.1412C717.075 96.0881 710.293 105.853 707.025 116.975C699.344 113.6 690.76 112.868 682.618 114.893C674.475 116.918 667.235 121.587 662.03 128.167H829.402C834.285 128.181 839.12 127.209 843.618 125.311C848.117 123.412 852.186 120.625 855.582 117.116C858.978 113.608 861.631 109.45 863.383 104.892C865.134 100.334 865.948 95.4699 865.775 90.5901C865.764 90.3267 865.752 90.0629 865.737 89.7988Z" fill="#E6E6E6"/>
<path d="M754.152 461.212L773.604 461.223L773.606 458.135L754.153 458.125L754.152 461.212Z" fill="#3F3D56"/>
<path d="M613.507 458.822L617.521 459.75L770.054 459.832L771.426 456.636C773.818 451.154 774.639 445.115 773.797 439.194C773.14 434.78 771.494 430.395 767.755 428.49L760.986 383.406L676.597 383.255L643.948 409.589C643.948 409.589 628.546 409.312 620.179 419.728C617.161 423.602 615.379 428.294 615.065 433.194L614.735 438.613L613.507 458.822Z" fill="#D2BBEE"/>
<path d="M647.009 476.903C657.412 476.903 665.844 468.47 665.844 458.068C665.844 447.665 657.412 439.232 647.009 439.232C636.607 439.232 628.174 447.665 628.174 458.068C628.174 468.47 636.607 476.903 647.009 476.903Z" fill="#3F3D56"/>
<path d="M647.009 467.981C652.484 467.981 656.923 463.542 656.923 458.068C656.923 452.593 652.484 448.154 647.009 448.154C641.534 448.154 637.096 452.593 637.096 458.068C637.096 463.542 641.534 467.981 647.009 467.981Z" fill="#CCCCCC"/>
<path d="M739.95 476.952C750.352 476.952 758.785 468.52 758.785 458.117C758.785 447.715 750.352 439.282 739.95 439.282C729.547 439.282 721.115 447.715 721.115 458.117C721.115 468.52 729.547 476.952 739.95 476.952Z" fill="#3F3D56"/>
<path d="M739.95 468.03C745.425 468.03 749.863 463.592 749.863 458.117C749.863 452.642 745.425 448.204 739.95 448.204C734.475 448.204 730.037 452.642 730.037 458.117C730.037 463.592 734.475 468.03 739.95 468.03Z" fill="#CCCCCC"/>
<path d="M656.92 406.511L702.483 406.53H708.045L717.435 406.537V405.852L717.442 397.594L717.449 388.322H711.201L705.639 388.316L695.787 388.309H690.225L678.851 388.302L656.92 406.511Z" fill="white"/>
<path d="M724.849 406.544L748.929 406.557L748.935 401.832V393.574L748.942 388.342H745.416L739.854 388.335L724.856 388.329L724.849 406.544Z" fill="white"/>
<path d="M714.339 425.991L717.427 425.993L717.43 420.126L714.342 420.124L714.339 425.991Z" fill="#3F3D56"/>
<path d="M669.264 414.851L669.266 411.764L663.399 411.76L663.397 414.848L669.264 414.851Z" fill="#3F3D56"/>
<path d="M667.104 413.121L666.764 413.121C665.916 413.12 665.077 412.953 664.295 412.628C663.512 412.303 662.801 411.828 662.202 411.228C661.603 410.629 661.128 409.917 660.804 409.134C660.48 408.351 660.313 407.511 660.314 406.664C660.314 405.817 660.482 404.977 660.807 404.195C661.131 403.412 661.607 402.701 662.207 402.102C662.806 401.503 663.518 401.028 664.301 400.704C665.084 400.38 665.923 400.214 666.771 400.214L667.11 400.214L667.104 413.121Z" fill="#3F3D56"/>
<path d="M614.735 438.613C617.07 438.867 619.419 438.289 621.37 436.98C623.32 435.672 624.747 433.717 625.397 431.46C626.048 429.203 625.881 426.789 624.927 424.643C623.972 422.497 622.291 420.756 620.179 419.728C617.161 423.602 615.379 428.294 615.065 433.194L614.735 438.613Z" fill="#3F3D56"/>
<path d="M705.639 388.316L717.435 405.852L717.442 397.594L711.201 388.322L705.639 388.316Z" fill="#F2F2F2"/>
<path d="M739.854 388.335L748.935 401.832V393.574L745.416 388.342L739.854 388.335Z" fill="#F2F2F2"/>
<path d="M690.225 388.309L702.483 406.53H708.045L695.787 388.309H690.225Z" fill="#F2F2F2"/>
<path d="M50.0579 310.987C77.7041 310.987 100.116 288.576 100.116 260.93C100.116 233.283 77.7041 210.872 50.0579 210.872C22.4117 210.872 0 233.283 0 260.93C0 288.576 22.4117 310.987 50.0579 310.987Z" fill="#7F6E95"/>
<path d="M50.2662 276L25.2154 250.949C24.4006 250.132 23.9432 249.026 23.9438 247.872C23.9445 246.718 24.4031 245.612 25.2188 244.796C26.0346 243.98 27.1409 243.522 28.2946 243.521C29.4483 243.521 30.555 243.978 31.3717 244.793L49.8496 263.271L108.814 196.031C109.575 195.165 110.649 194.637 111.8 194.562C112.951 194.488 114.085 194.873 114.952 195.633C115.819 196.394 116.349 197.467 116.425 198.618C116.502 199.769 116.118 200.903 115.359 201.771L50.2662 276Z" fill="#D2BBEE"/>
</g>
<defs>
<clipPath id="clip0_298_2">
<rect width="886.351" height="491.631" fill="white"/>
</clipPath>
</defs>
</svg>
