<?xml version="1.0" encoding="UTF-8" standalone="no"?>
<svg>
  
  <path
     fill="#0099ff"
     fill-opacity="1"
     d="m 0,3.721986 c 57.97779,17.066599 129.29158,18.357647 180,18.485335 60,0.08919 120,-6.451123 180,0 60,6.332208 120,25.35856 180,28.539528 60,3.062054 120,-9.42399 180,-15.875112 60,-6.332208 120,-6.332208 180,-1.57562 60,4.756588 120,14.269764 180,15.845384 60,1.694534 120,-4.845774 180,-12.664416 60,-7.937556 120,-17.450733 150,-22.207321 l 30,-4.7565878 V 0 H 1410 1260 1080 900 720 540 360 180 30 0 Z"
     id="path821"
     style="stroke-width:0.54524"
     sodipodi:nodetypes="cccccsccsccccccccccccc" />
</svg>
